# xmcd
#
# Track frame offsets: 
#        150
#        3870
#        22817
#        31158
#        41952
#        54391
#        68559
#        91712
#        103699
#        117634
#        131055
#
# Disc length: 1944 seconds
#
# Revision: 0
# Processed by: cddbd v1.5.2PL0 Copyright (c) Steve Scherf et al.
# Submitted via: ExactAudioCopy v0.99pb4
#
DISCID=8407960b
DTITLE=Casiotone for the Painfully Alone - vs. Children
DYEAR=1900
DGENRE=
TTITLE0=Casiotone for the Painfully Alone vs. Children
TTITLE1=Tom Justice, The Choir Boy Robber, Apprehended at Ace Hardware
TTITLE1=in Libertyville, IL
TTITLE2=Optimist vs. The Silent Alarm (When The Saints Go Marching In)
TTITLE3=Natural Light
TTITLE4=Traveling Salesman's Young Wife Home Alone on Christmas in Mon
TTITLE4=tpelier, VT
TTITLE5=Man O' War
TTITLE6=Northfield, MN
TTITLE7=Killers
TTITLE8=Harsh The Herald Angels Sing
TTITLE9=You Were Alone
TTITLE10=White Jetta
EXTD=
EXTT0=
EXTT1=
EXTT2=
EXTT3=
EXTT4=
EXTT5=
EXTT6=
EXTT7=
EXTT8=
EXTT9=
EXTT10=
PLAYORDER=
